<?xml version="1.0" encoding="UTF-8"?>
<!DOCTYPE svg PUBLIC "-//W3C//DTD SVG 1.1//EN" "http://www.w3.org/Graphics/SVG/1.1/DTD/svg11.dtd">
<svg xmlns="http://www.w3.org/2000/svg" version="1.1" width="420px" height="420px" style="shape-rendering:geometricPrecision; text-rendering:geometricPrecision; image-rendering:optimizeQuality; fill-rule:evenodd; clip-rule:evenodd" xmlns:xlink="http://www.w3.org/1999/xlink">
<g><path style="opacity:1" fill="#eff0ef" d="M -0.5,-0.5 C 139.5,-0.5 279.5,-0.5 419.5,-0.5C 419.5,139.5 419.5,279.5 419.5,419.5C 279.5,419.5 139.5,419.5 -0.5,419.5C -0.5,279.5 -0.5,139.5 -0.5,-0.5 Z"/></g>
<g><path style="opacity:1" fill="#a4d44e" d="M 34.5,34.5 C 58.1667,34.5 81.8333,34.5 105.5,34.5C 105.5,58.1667 105.5,81.8333 105.5,105.5C 81.8333,105.5 58.1667,105.5 34.5,105.5C 34.5,81.8333 34.5,58.1667 34.5,34.5 Z"/></g>
<g><path style="opacity:1" fill="#a4d44e" d="M 314.5,34.5 C 338.167,34.5 361.833,34.5 385.5,34.5C 385.5,58.1667 385.5,81.8333 385.5,105.5C 361.833,105.5 338.167,105.5 314.5,105.5C 314.5,81.8333 314.5,58.1667 314.5,34.5 Z"/></g>
<g><path style="opacity:1" fill="#a4d44e" d="M 34.5,174.5 C 58.1667,174.5 81.8333,174.5 105.5,174.5C 105.5,221.167 105.5,267.833 105.5,314.5C 128.5,314.5 151.5,314.5 174.5,314.5C 174.5,267.833 174.5,221.167 174.5,174.5C 198.167,174.5 221.833,174.5 245.5,174.5C 245.5,221.167 245.5,267.833 245.5,314.5C 268.5,314.5 291.5,314.5 314.5,314.5C 314.5,267.833 314.5,221.167 314.5,174.5C 338.167,174.5 361.833,174.5 385.5,174.5C 385.5,221.5 385.5,268.5 385.5,315.5C 362.167,315.5 338.833,315.5 315.5,315.5C 315.5,338.833 315.5,362.167 315.5,385.5C 291.833,385.5 268.167,385.5 244.5,385.5C 244.5,362.167 244.5,338.833 244.5,315.5C 221.5,315.5 198.5,315.5 175.5,315.5C 175.5,338.833 175.5,362.167 175.5,385.5C 151.833,385.5 128.167,385.5 104.5,385.5C 104.5,362.167 104.5,338.833 104.5,315.5C 81.1667,315.5 57.8333,315.5 34.5,315.5C 34.5,268.5 34.5,221.5 34.5,174.5 Z"/></g>
</svg>
